<mxfile host="65bd71144e">
    <diagram id="yUhyKia5GF38DRZmOtrO" name="Page-1">
        <mxGraphModel dx="1394" dy="974" grid="1" gridSize="10" guides="1" tooltips="1" connect="1" arrows="1" fold="1" page="0" pageScale="1" pageWidth="850" pageHeight="1100" math="0" shadow="0">
            <root>
                <mxCell id="0"/>
                <mxCell id="1" parent="0"/>
                <mxCell id="5" value="" style="edgeStyle=none;html=1;" parent="1" source="3" target="4" edge="1">
                    <mxGeometry relative="1" as="geometry"/>
                </mxCell>
                <mxCell id="3" value="main()" style="rounded=0;whiteSpace=wrap;html=1;fillColor=#f8cecc;strokeColor=#b85450;" parent="1" vertex="1">
                    <mxGeometry x="359" y="80" width="400" height="40" as="geometry"/>
                </mxCell>
                <mxCell id="7" value="" style="edgeStyle=none;html=1;" parent="1" source="4" target="6" edge="1">
                    <mxGeometry relative="1" as="geometry"/>
                </mxCell>
                <mxCell id="4" value="🚀 Starting main execution..." style="rounded=0;whiteSpace=wrap;html=1;fillColor=#dae8fc;strokeColor=#6c8ebf;" parent="1" vertex="1">
                    <mxGeometry x="359" y="160" width="400" height="80" as="geometry"/>
                </mxCell>
                <mxCell id="9" value="" style="edgeStyle=none;html=1;" parent="1" source="6" target="8" edge="1">
                    <mxGeometry relative="1" as="geometry"/>
                </mxCell>
                <mxCell id="6" value="load_configuration()" style="rounded=0;whiteSpace=wrap;html=1;fillColor=#f8cecc;strokeColor=#b85450;" parent="1" vertex="1">
                    <mxGeometry x="359" y="280" width="400" height="40" as="geometry"/>
                </mxCell>
                <mxCell id="11" value="" style="edgeStyle=none;html=1;entryX=0.5;entryY=0;entryDx=0;entryDy=0;" parent="1" source="8" target="12" edge="1">
                    <mxGeometry relative="1" as="geometry"/>
                </mxCell>
                <mxCell id="8" value="&lt;div&gt;&lt;font color=&quot;#121212&quot;&gt;🔄 Loading environment variables...()&lt;/font&gt;&lt;/div&gt;&lt;div&gt;&lt;font color=&quot;#121212&quot;&gt;🌐 ENVIRONMENT: {env}&lt;/font&gt;&lt;/div&gt;&lt;div&gt;&lt;font color=&quot;#121212&quot;&gt;✅ Configuration loaded.&lt;/font&gt;&lt;/div&gt;" style="rounded=0;whiteSpace=wrap;html=1;fillColor=#dae8fc;strokeColor=#6c8ebf;" parent="1" vertex="1">
                    <mxGeometry x="359" y="360" width="400" height="80" as="geometry"/>
                </mxCell>
                <mxCell id="16" value="" style="edgeStyle=none;html=1;entryX=0.5;entryY=0;entryDx=0;entryDy=0;" parent="1" source="10" target="17" edge="1">
                    <mxGeometry relative="1" as="geometry">
                        <mxPoint x="559" y="680" as="targetPoint"/>
                    </mxGeometry>
                </mxCell>
                <mxCell id="10" value="&lt;font style=&quot;color: light-dark(rgb(0, 0, 0), rgb(255, 255, 255));&quot;&gt;🔗 Connecting to Azure AI Project...&lt;/font&gt;&lt;div&gt;&lt;font style=&quot;color: light-dark(rgb(0, 0, 0), rgb(255, 255, 255));&quot;&gt;✅ Connected to Azure AI Project at: {endpoint}&lt;/font&gt;&lt;/div&gt;" style="rounded=0;whiteSpace=wrap;html=1;fillColor=#dae8fc;strokeColor=#6c8ebf;" parent="1" vertex="1">
                    <mxGeometry x="359" y="560" width="400" height="80" as="geometry"/>
                </mxCell>
                <mxCell id="14" style="edgeStyle=none;html=1;entryX=0.5;entryY=0;entryDx=0;entryDy=0;" parent="1" source="12" target="10" edge="1">
                    <mxGeometry relative="1" as="geometry"/>
                </mxCell>
                <mxCell id="12" value="connect_to_project(endpoint)" style="rounded=0;whiteSpace=wrap;html=1;fillColor=#f8cecc;strokeColor=#b85450;" parent="1" vertex="1">
                    <mxGeometry x="359" y="480" width="400" height="40" as="geometry"/>
                </mxCell>
                <mxCell id="20" value="" style="edgeStyle=none;html=1;" parent="1" source="17" target="19" edge="1">
                    <mxGeometry relative="1" as="geometry"/>
                </mxCell>
                <mxCell id="17" value="create_inventory_agent(project, model_name)" style="whiteSpace=wrap;html=1;rounded=0;fillColor=#f8cecc;strokeColor=#b85450;" parent="1" vertex="1">
                    <mxGeometry x="359" y="680" width="400" height="40" as="geometry"/>
                </mxCell>
                <mxCell id="22" value="" style="edgeStyle=none;html=1;" parent="1" source="19" target="21" edge="1">
                    <mxGeometry relative="1" as="geometry"/>
                </mxCell>
                <mxCell id="19" value="&lt;font style=&quot;color: light-dark(rgb(0, 0, 0), rgb(255, 255, 255));&quot;&gt;🤖 Creating connected agent ({agent_name})...&lt;/font&gt;&lt;div&gt;&lt;font style=&quot;color: light-dark(rgb(0, 0, 0), rgb(255, 255, 255));&quot;&gt;✅ {agent_name} created: {agent.id}&lt;/font&gt;&lt;/div&gt;&lt;div&gt;&lt;font style=&quot;color: light-dark(rgb(0, 0, 0), rgb(255, 255, 255));&quot;&gt;⚙️ Connecting agent to the tools ({agent_name})...&lt;/font&gt;&lt;/div&gt;&lt;div&gt;&lt;font style=&quot;color: light-dark(rgb(0, 0, 0), rgb(255, 255, 255));&quot;&gt;✅ {agent_name} connected to tools.&lt;/font&gt;&lt;/div&gt;" style="whiteSpace=wrap;html=1;rounded=0;fillColor=#dae8fc;strokeColor=#6c8ebf;" parent="1" vertex="1">
                    <mxGeometry x="359" y="760" width="400" height="80" as="geometry"/>
                </mxCell>
                <mxCell id="25" value="" style="edgeStyle=none;html=1;" parent="1" source="21" target="24" edge="1">
                    <mxGeometry relative="1" as="geometry"/>
                </mxCell>
                <mxCell id="21" value="create_main_agent(project, model_name, connected_tool)" style="whiteSpace=wrap;html=1;rounded=0;fillColor=#f8cecc;strokeColor=#b85450;" parent="1" vertex="1">
                    <mxGeometry x="359" y="880" width="400" height="40" as="geometry"/>
                </mxCell>
                <mxCell id="27" value="" style="edgeStyle=none;html=1;" parent="1" source="24" target="26" edge="1">
                    <mxGeometry relative="1" as="geometry"/>
                </mxCell>
                <mxCell id="24" value="&lt;font style=&quot;color: light-dark(rgb(0, 0, 0), rgb(255, 255, 255));&quot;&gt;🤖 Creating main agent ({agent_name})...&lt;/font&gt;&lt;div&gt;&lt;font style=&quot;color: light-dark(rgb(0, 0, 0), rgb(255, 255, 255));&quot;&gt;✅ {agent_name} created: {agent.id}&lt;/font&gt;&lt;/div&gt;" style="whiteSpace=wrap;html=1;rounded=0;fillColor=#dae8fc;strokeColor=#6c8ebf;" parent="1" vertex="1">
                    <mxGeometry x="359" y="960" width="400" height="80" as="geometry"/>
                </mxCell>
                <mxCell id="29" value="" style="edgeStyle=none;html=1;" parent="1" source="26" target="28" edge="1">
                    <mxGeometry relative="1" as="geometry"/>
                </mxCell>
                <mxCell id="26" value="create_thread(project)" style="whiteSpace=wrap;html=1;rounded=0;fillColor=#f8cecc;strokeColor=#b85450;" parent="1" vertex="1">
                    <mxGeometry x="359" y="1070" width="400" height="50" as="geometry"/>
                </mxCell>
                <mxCell id="31" value="" style="edgeStyle=none;html=1;" parent="1" source="28" target="30" edge="1">
                    <mxGeometry relative="1" as="geometry"/>
                </mxCell>
                <mxCell id="28" value="&lt;font style=&quot;color: light-dark(rgb(0, 0, 0), rgb(255, 255, 255));&quot;&gt;🧵 Creating conversation thread...&lt;/font&gt;&lt;div&gt;&lt;font style=&quot;color: light-dark(rgb(0, 0, 0), rgb(255, 255, 255));&quot;&gt;✅ Thread created: {thread.id}&lt;/font&gt;&lt;/div&gt;" style="whiteSpace=wrap;html=1;rounded=0;fillColor=#dae8fc;strokeColor=#6c8ebf;" parent="1" vertex="1">
                    <mxGeometry x="359" y="1160" width="400" height="80" as="geometry"/>
                </mxCell>
                <mxCell id="33" value="" style="edgeStyle=none;html=1;" parent="1" source="30" target="32" edge="1">
                    <mxGeometry relative="1" as="geometry"/>
                </mxCell>
                <mxCell id="30" value="send_user_message(project, thread, user_message)" style="whiteSpace=wrap;html=1;rounded=0;fillColor=#f8cecc;strokeColor=#b85450;" parent="1" vertex="1">
                    <mxGeometry x="359" y="1280" width="400" height="40" as="geometry"/>
                </mxCell>
                <mxCell id="35" value="" style="edgeStyle=none;html=1;" parent="1" source="32" target="34" edge="1">
                    <mxGeometry relative="1" as="geometry"/>
                </mxCell>
                <mxCell id="32" value="&lt;font style=&quot;color: light-dark(rgb(0, 0, 0), rgb(255, 255, 255));&quot;&gt;💬 User message: {content}&lt;/font&gt;&lt;div&gt;&lt;font style=&quot;color: light-dark(rgb(0, 0, 0), rgb(255, 255, 255));&quot;&gt;📨 Sending user message to agent...&lt;/font&gt;&lt;/div&gt;&lt;div&gt;&lt;font style=&quot;color: light-dark(rgb(0, 0, 0), rgb(255, 255, 255));&quot;&gt;✅ Message sent: {message.id}&lt;/font&gt;&lt;/div&gt;" style="whiteSpace=wrap;html=1;rounded=0;fillColor=#dae8fc;strokeColor=#6c8ebf;" parent="1" vertex="1">
                    <mxGeometry x="359" y="1360" width="400" height="80" as="geometry"/>
                </mxCell>
                <mxCell id="37" value="" style="edgeStyle=none;html=1;" parent="1" source="34" target="36" edge="1">
                    <mxGeometry relative="1" as="geometry"/>
                </mxCell>
                <mxCell id="34" value="run_agent(project, thread, main_agent)" style="whiteSpace=wrap;html=1;rounded=0;fillColor=#f8cecc;strokeColor=#b85450;" parent="1" vertex="1">
                    <mxGeometry x="359" y="1480" width="400" height="40" as="geometry"/>
                </mxCell>
                <mxCell id="39" value="" style="edgeStyle=none;html=1;" parent="1" source="36" target="38" edge="1">
                    <mxGeometry relative="1" as="geometry"/>
                </mxCell>
                <mxCell id="36" value="&lt;font style=&quot;color: light-dark(rgb(0, 0, 0), rgb(255, 255, 255));&quot;&gt;🏃 Starting agent run...&lt;/font&gt;&lt;div&gt;&lt;font style=&quot;color: light-dark(rgb(0, 0, 0), rgb(255, 255, 255));&quot;&gt;🔄 Run initiated: {run.id} — Status: {run.status}&lt;/font&gt;&lt;/div&gt;&lt;div&gt;&lt;font style=&quot;color: light-dark(rgb(0, 0, 0), rgb(255, 255, 255));&quot;&gt;📡 Run status: {run.status}&lt;/font&gt;&lt;/div&gt;&lt;div&gt;&lt;font style=&quot;color: light-dark(rgb(0, 0, 0), rgb(255, 255, 255));&quot;&gt;✅ Run completed with status: {run.status}&lt;/font&gt;&lt;/div&gt;" style="whiteSpace=wrap;html=1;rounded=0;fillColor=#dae8fc;strokeColor=#6c8ebf;" parent="1" vertex="1">
                    <mxGeometry x="359" y="1560" width="400" height="80" as="geometry"/>
                </mxCell>
                <mxCell id="41" value="" style="edgeStyle=none;html=1;" parent="1" source="38" target="40" edge="1">
                    <mxGeometry relative="1" as="geometry"/>
                </mxCell>
                <mxCell id="38" value="display_agent_responses(project, thread, run)" style="whiteSpace=wrap;html=1;rounded=0;fillColor=#f8cecc;strokeColor=#b85450;" parent="1" vertex="1">
                    <mxGeometry x="359" y="1680" width="400" height="40" as="geometry"/>
                </mxCell>
                <mxCell id="40" value="&lt;font style=&quot;color: light-dark(rgb(0, 0, 0), rgb(255, 255, 255));&quot;&gt;📥 Fetching messages from thread...&lt;/font&gt;&lt;div&gt;&lt;font style=&quot;color: light-dark(rgb(0, 0, 0), rgb(255, 255, 255));&quot;&gt;🧠 {msg.role.capitalize()}: {last_message}&lt;/font&gt;&lt;/div&gt;" style="whiteSpace=wrap;html=1;rounded=0;fillColor=#dae8fc;strokeColor=#6c8ebf;" parent="1" vertex="1">
                    <mxGeometry x="359" y="1760" width="400" height="80" as="geometry"/>
                </mxCell>
                <mxCell id="53" style="edgeStyle=none;html=1;" parent="1" source="42" target="49" edge="1">
                    <mxGeometry relative="1" as="geometry"/>
                </mxCell>
                <mxCell id="42" value="Script Run" style="swimlane;whiteSpace=wrap;html=1;swimlaneFillColor=default;fillColor=default;strokeColor=#36393d;fillStyle=auto;" parent="1" vertex="1">
                    <mxGeometry x="920" y="80" width="480" height="240" as="geometry"/>
                </mxCell>
                <mxCell id="46" value="" style="edgeStyle=none;html=1;" parent="42" source="47" target="48" edge="1">
                    <mxGeometry relative="1" as="geometry"/>
                </mxCell>
                <mxCell id="47" value="main()" style="rounded=0;whiteSpace=wrap;html=1;fillColor=#f8cecc;strokeColor=#b85450;" parent="42" vertex="1">
                    <mxGeometry x="40" y="50" width="400" height="40" as="geometry"/>
                </mxCell>
                <mxCell id="48" value="🚀 Starting main execution..." style="rounded=0;whiteSpace=wrap;html=1;fillColor=#dae8fc;strokeColor=#6c8ebf;" parent="42" vertex="1">
                    <mxGeometry x="40" y="130" width="400" height="80" as="geometry"/>
                </mxCell>
                <mxCell id="59" style="edgeStyle=none;html=1;entryX=0.5;entryY=0;entryDx=0;entryDy=0;" parent="1" source="49" target="54" edge="1">
                    <mxGeometry relative="1" as="geometry"/>
                </mxCell>
                <mxCell id="49" value="Environment Management" style="swimlane;whiteSpace=wrap;html=1;swimlaneFillColor=default;fillColor=default;strokeColor=#36393d;fillStyle=auto;" parent="1" vertex="1">
                    <mxGeometry x="920" y="360" width="480" height="240" as="geometry"/>
                </mxCell>
                <mxCell id="50" value="" style="edgeStyle=none;html=1;" parent="49" source="51" target="52" edge="1">
                    <mxGeometry relative="1" as="geometry"/>
                </mxCell>
                <mxCell id="51" value="&lt;span style=&quot;&quot;&gt;&lt;font style=&quot;color: light-dark(rgb(0, 0, 0), rgb(255, 255, 255));&quot;&gt;load_configuration()&lt;/font&gt;&lt;/span&gt;" style="rounded=0;whiteSpace=wrap;html=1;fillColor=#f8cecc;strokeColor=#b85450;fontColor=light-dark(#000000,#FFFFFF);" parent="49" vertex="1">
                    <mxGeometry x="40" y="50" width="400" height="40" as="geometry"/>
                </mxCell>
                <mxCell id="52" value="&lt;div&gt;&lt;font color=&quot;#121212&quot;&gt;🔄 Loading environment variables...()&lt;/font&gt;&lt;/div&gt;&lt;div&gt;&lt;font color=&quot;#121212&quot;&gt;🌐 ENVIRONMENT: {env}&lt;/font&gt;&lt;/div&gt;&lt;div&gt;&lt;font color=&quot;#121212&quot;&gt;✅ Configuration loaded.&lt;/font&gt;&lt;/div&gt;" style="rounded=0;whiteSpace=wrap;html=1;fillColor=#dae8fc;strokeColor=#6c8ebf;" parent="49" vertex="1">
                    <mxGeometry x="40" y="130" width="400" height="80" as="geometry"/>
                </mxCell>
                <mxCell id="89" style="edgeStyle=none;html=1;exitX=1;exitY=0.5;exitDx=0;exitDy=0;entryX=0;entryY=0.5;entryDx=0;entryDy=0;" parent="1" source="54" target="60" edge="1">
                    <mxGeometry relative="1" as="geometry">
                        <Array as="points">
                            <mxPoint x="1460" y="760"/>
                            <mxPoint x="1460" y="300"/>
                        </Array>
                    </mxGeometry>
                </mxCell>
                <mxCell id="54" value="Azure AI Foundry Project Connection" style="swimlane;whiteSpace=wrap;html=1;swimlaneFillColor=default;fillColor=default;strokeColor=#36393d;fillStyle=auto;" parent="1" vertex="1">
                    <mxGeometry x="920" y="640" width="480" height="240" as="geometry"/>
                </mxCell>
                <mxCell id="55" value="" style="edgeStyle=none;html=1;" parent="54" source="56" target="57" edge="1">
                    <mxGeometry relative="1" as="geometry"/>
                </mxCell>
                <mxCell id="56" value="connect_to_project(endpoint)" style="rounded=0;whiteSpace=wrap;html=1;fillColor=#f8cecc;strokeColor=#b85450;fontColor=light-dark(#000000,#FFFFFF);" parent="54" vertex="1">
                    <mxGeometry x="40" y="50" width="400" height="40" as="geometry"/>
                </mxCell>
                <mxCell id="57" value="&lt;div&gt;&lt;font style=&quot;color: light-dark(rgb(0, 0, 0), rgb(255, 255, 255));&quot;&gt;🔗 Connecting to Azure AI Project...&lt;/font&gt;&lt;/div&gt;&lt;div&gt;&lt;font style=&quot;color: light-dark(rgb(0, 0, 0), rgb(255, 255, 255));&quot;&gt;✅ Connected to Azure AI Project at: {endpoint}&lt;/font&gt;&lt;/div&gt;" style="rounded=0;whiteSpace=wrap;html=1;fillColor=#dae8fc;strokeColor=#6c8ebf;" parent="54" vertex="1">
                    <mxGeometry x="40" y="130" width="400" height="80" as="geometry"/>
                </mxCell>
                <mxCell id="101" style="edgeStyle=none;html=1;entryX=0.5;entryY=0;entryDx=0;entryDy=0;" parent="1" source="60" target="90" edge="1">
                    <mxGeometry relative="1" as="geometry"/>
                </mxCell>
                <mxCell id="60" value="Agent Creation or Connecting" style="swimlane;whiteSpace=wrap;html=1;swimlaneFillColor=default;fillColor=default;strokeColor=#36393d;fillStyle=auto;" parent="1" vertex="1">
                    <mxGeometry x="1520" y="80" width="480" height="440" as="geometry"/>
                </mxCell>
                <mxCell id="82" value="" style="edgeStyle=none;html=1;" parent="60" source="83" target="85" edge="1">
                    <mxGeometry relative="1" as="geometry"/>
                </mxCell>
                <mxCell id="83" value="create_inventory_agent(project, model_name)" style="whiteSpace=wrap;html=1;rounded=0;fillColor=#f8cecc;strokeColor=#b85450;" parent="60" vertex="1">
                    <mxGeometry x="40" y="50" width="400" height="40" as="geometry"/>
                </mxCell>
                <mxCell id="84" value="" style="edgeStyle=none;html=1;" parent="60" source="85" target="87" edge="1">
                    <mxGeometry relative="1" as="geometry"/>
                </mxCell>
                <mxCell id="85" value="&lt;font style=&quot;color: light-dark(rgb(0, 0, 0), rgb(255, 255, 255));&quot;&gt;🤖 Creating connected agent ({agent_name})...&lt;/font&gt;&lt;div&gt;&lt;font style=&quot;color: light-dark(rgb(0, 0, 0), rgb(255, 255, 255));&quot;&gt;✅ {agent_name} created: {agent.id}&lt;/font&gt;&lt;/div&gt;&lt;div&gt;&lt;font style=&quot;color: light-dark(rgb(0, 0, 0), rgb(255, 255, 255));&quot;&gt;⚙️ Connecting agent to the tools ({agent_name})...&lt;/font&gt;&lt;/div&gt;&lt;div&gt;&lt;font style=&quot;color: light-dark(rgb(0, 0, 0), rgb(255, 255, 255));&quot;&gt;✅ {agent_name} connected to tools.&lt;/font&gt;&lt;/div&gt;" style="whiteSpace=wrap;html=1;rounded=0;fillColor=#dae8fc;strokeColor=#6c8ebf;" parent="60" vertex="1">
                    <mxGeometry x="40" y="130" width="400" height="80" as="geometry"/>
                </mxCell>
                <mxCell id="86" value="" style="edgeStyle=none;html=1;" parent="60" source="87" target="88" edge="1">
                    <mxGeometry relative="1" as="geometry"/>
                </mxCell>
                <mxCell id="87" value="create_main_agent(project, model_name, connected_tool)" style="whiteSpace=wrap;html=1;rounded=0;fillColor=#f8cecc;strokeColor=#b85450;" parent="60" vertex="1">
                    <mxGeometry x="40" y="250" width="400" height="40" as="geometry"/>
                </mxCell>
                <mxCell id="88" value="&lt;font style=&quot;color: light-dark(rgb(0, 0, 0), rgb(255, 255, 255));&quot;&gt;🤖 Creating main agent ({agent_name})...&lt;/font&gt;&lt;div&gt;&lt;font style=&quot;color: light-dark(rgb(0, 0, 0), rgb(255, 255, 255));&quot;&gt;✅ {agent_name} created: {agent.id}&lt;/font&gt;&lt;/div&gt;" style="whiteSpace=wrap;html=1;rounded=0;fillColor=#dae8fc;strokeColor=#6c8ebf;" parent="60" vertex="1">
                    <mxGeometry x="40" y="330" width="400" height="80" as="geometry"/>
                </mxCell>
                <mxCell id="123" style="edgeStyle=none;html=1;entryX=0;entryY=0.5;entryDx=0;entryDy=0;" parent="1" source="90" target="111" edge="1">
                    <mxGeometry relative="1" as="geometry">
                        <Array as="points">
                            <mxPoint x="2060" y="690"/>
                            <mxPoint x="2060" y="200"/>
                        </Array>
                    </mxGeometry>
                </mxCell>
                <mxCell id="90" value="Thread Creation or Connecting" style="swimlane;whiteSpace=wrap;html=1;swimlaneFillColor=default;fillColor=default;strokeColor=#36393d;fillStyle=auto;" parent="1" vertex="1">
                    <mxGeometry x="1520" y="560" width="480" height="250" as="geometry"/>
                </mxCell>
                <mxCell id="91" value="" style="edgeStyle=none;html=1;" parent="90" edge="1">
                    <mxGeometry relative="1" as="geometry">
                        <mxPoint x="240.00000000000023" y="90" as="sourcePoint"/>
                    </mxGeometry>
                </mxCell>
                <mxCell id="93" value="" style="edgeStyle=none;html=1;" parent="90" edge="1">
                    <mxGeometry relative="1" as="geometry">
                        <mxPoint x="240.00000000000023" y="210" as="sourcePoint"/>
                    </mxGeometry>
                </mxCell>
                <mxCell id="95" value="" style="edgeStyle=none;html=1;" parent="90" edge="1">
                    <mxGeometry relative="1" as="geometry">
                        <mxPoint x="240.00000000000023" y="290" as="sourcePoint"/>
                    </mxGeometry>
                </mxCell>
                <mxCell id="98" value="" style="edgeStyle=none;html=1;" parent="90" source="99" target="100" edge="1">
                    <mxGeometry relative="1" as="geometry"/>
                </mxCell>
                <mxCell id="99" value="create_thread(project)" style="whiteSpace=wrap;html=1;rounded=0;fillColor=#f8cecc;strokeColor=#b85450;" parent="90" vertex="1">
                    <mxGeometry x="40" y="50" width="400" height="50" as="geometry"/>
                </mxCell>
                <mxCell id="100" value="&lt;font style=&quot;color: light-dark(rgb(0, 0, 0), rgb(255, 255, 255));&quot;&gt;🧵 Creating conversation thread...&lt;/font&gt;&lt;div&gt;&lt;font style=&quot;color: light-dark(rgb(0, 0, 0), rgb(255, 255, 255));&quot;&gt;✅ Thread created: {thread.id}&lt;/font&gt;&lt;/div&gt;" style="whiteSpace=wrap;html=1;rounded=0;fillColor=#dae8fc;strokeColor=#6c8ebf;" parent="90" vertex="1">
                    <mxGeometry x="40" y="140" width="400" height="80" as="geometry"/>
                </mxCell>
                <mxCell id="121" style="edgeStyle=none;html=1;" parent="1" source="111" target="119" edge="1">
                    <mxGeometry relative="1" as="geometry"/>
                </mxCell>
                <mxCell id="111" value="Message Creation" style="swimlane;whiteSpace=wrap;html=1;swimlaneFillColor=default;fillColor=default;strokeColor=#36393d;fillStyle=auto;" parent="1" vertex="1">
                    <mxGeometry x="2120" y="80" width="480" height="240" as="geometry"/>
                </mxCell>
                <mxCell id="102" value="" style="edgeStyle=none;html=1;" parent="111" source="103" target="104" edge="1">
                    <mxGeometry relative="1" as="geometry"/>
                </mxCell>
                <mxCell id="103" value="send_user_message(project, thread, user_message)" style="whiteSpace=wrap;html=1;rounded=0;fillColor=#f8cecc;strokeColor=#b85450;" parent="111" vertex="1">
                    <mxGeometry x="40" y="50" width="400" height="40" as="geometry"/>
                </mxCell>
                <mxCell id="104" value="&lt;font style=&quot;color: light-dark(rgb(0, 0, 0), rgb(255, 255, 255));&quot;&gt;💬 User message: {content}&lt;/font&gt;&lt;div&gt;&lt;font style=&quot;color: light-dark(rgb(0, 0, 0), rgb(255, 255, 255));&quot;&gt;📨 Sending user message to agent...&lt;/font&gt;&lt;/div&gt;&lt;div&gt;&lt;font style=&quot;color: light-dark(rgb(0, 0, 0), rgb(255, 255, 255));&quot;&gt;✅ Message sent: {message.id}&lt;/font&gt;&lt;/div&gt;" style="whiteSpace=wrap;html=1;rounded=0;fillColor=#dae8fc;strokeColor=#6c8ebf;" parent="111" vertex="1">
                    <mxGeometry x="40" y="130" width="400" height="80" as="geometry"/>
                </mxCell>
                <mxCell id="122" style="edgeStyle=none;html=1;" parent="1" source="119" target="120" edge="1">
                    <mxGeometry relative="1" as="geometry"/>
                </mxCell>
                <mxCell id="119" value="Run Creation" style="swimlane;whiteSpace=wrap;html=1;swimlaneFillColor=default;fillColor=default;strokeColor=#36393d;fillStyle=auto;" parent="1" vertex="1">
                    <mxGeometry x="2120" y="360" width="480" height="240" as="geometry"/>
                </mxCell>
                <mxCell id="105" value="" style="edgeStyle=none;html=1;" parent="119" source="106" target="107" edge="1">
                    <mxGeometry relative="1" as="geometry"/>
                </mxCell>
                <mxCell id="106" value="run_agent(project, thread, main_agent)" style="whiteSpace=wrap;html=1;rounded=0;fillColor=#f8cecc;strokeColor=#b85450;" parent="119" vertex="1">
                    <mxGeometry x="40" y="50" width="400" height="40" as="geometry"/>
                </mxCell>
                <mxCell id="107" value="&lt;font style=&quot;color: light-dark(rgb(0, 0, 0), rgb(255, 255, 255));&quot;&gt;🏃 Starting agent run...&lt;/font&gt;&lt;div&gt;&lt;font style=&quot;color: light-dark(rgb(0, 0, 0), rgb(255, 255, 255));&quot;&gt;🔄 Run initiated: {run.id} — Status: {run.status}&lt;/font&gt;&lt;/div&gt;&lt;div&gt;&lt;font style=&quot;color: light-dark(rgb(0, 0, 0), rgb(255, 255, 255));&quot;&gt;📡 Run status: {run.status}&lt;/font&gt;&lt;/div&gt;&lt;div&gt;&lt;font style=&quot;color: light-dark(rgb(0, 0, 0), rgb(255, 255, 255));&quot;&gt;✅ Run completed with status: {run.status}&lt;/font&gt;&lt;/div&gt;" style="whiteSpace=wrap;html=1;rounded=0;fillColor=#dae8fc;strokeColor=#6c8ebf;" parent="119" vertex="1">
                    <mxGeometry x="40" y="130" width="400" height="80" as="geometry"/>
                </mxCell>
                <mxCell id="120" value="Display Output" style="swimlane;whiteSpace=wrap;html=1;swimlaneFillColor=default;fillColor=default;strokeColor=#36393d;fillStyle=auto;" parent="1" vertex="1">
                    <mxGeometry x="2120" y="640" width="480" height="240" as="geometry"/>
                </mxCell>
                <mxCell id="108" value="" style="edgeStyle=none;html=1;" parent="120" source="109" target="110" edge="1">
                    <mxGeometry relative="1" as="geometry"/>
                </mxCell>
                <mxCell id="109" value="display_agent_responses(project, thread, run)" style="whiteSpace=wrap;html=1;rounded=0;fillColor=#f8cecc;strokeColor=#b85450;" parent="120" vertex="1">
                    <mxGeometry x="40" y="50" width="400" height="40" as="geometry"/>
                </mxCell>
                <mxCell id="110" value="&lt;font style=&quot;color: light-dark(rgb(0, 0, 0), rgb(255, 255, 255));&quot;&gt;📥 Fetching messages from thread...&lt;/font&gt;&lt;div&gt;&lt;font style=&quot;color: light-dark(rgb(0, 0, 0), rgb(255, 255, 255));&quot;&gt;🧠 {msg.role.capitalize()}: {last_message}&lt;/font&gt;&lt;/div&gt;" style="whiteSpace=wrap;html=1;rounded=0;fillColor=#dae8fc;strokeColor=#6c8ebf;" parent="120" vertex="1">
                    <mxGeometry x="40" y="130" width="400" height="80" as="geometry"/>
                </mxCell>
                <mxCell id="124" value="" style="endArrow=none;html=1;strokeWidth=3;strokeColor=light-dark(#000000,#B3B3B3);" parent="1" edge="1">
                    <mxGeometry width="50" height="50" relative="1" as="geometry">
                        <mxPoint x="840" y="1840" as="sourcePoint"/>
                        <mxPoint x="840" y="80" as="targetPoint"/>
                    </mxGeometry>
                </mxCell>
            </root>
        </mxGraphModel>
    </diagram>
</mxfile>